<svg xmlns="http://www.w3.org/2000/svg" viewBox="0 0 180 180">
  <rect width="180" height="180" fill="#F0E8D5"/>
  <g transform="translate(30, 40) scale(2)">
    <path d="M5 35 C5 22, 18 14, 30 14 C42 14, 55 22, 55 35 L55 42 C55 45, 52 47, 48 47 L12 47 C8 47, 5 45, 5 42 Z" fill="#0F0E0C"/>
    <path d="M10 25 C10 14, 18 8, 30 8 C42 8, 50 14, 50 25 C50 32, 42 36, 30 36 C18 36, 10 32, 10 25 Z" fill="#0F0E0C"/>
    <ellipse cx="15" cy="13" rx="3" ry="2.5" fill="#0F0E0C"/>
    <ellipse cx="45" cy="13" rx="3" ry="2.5" fill="#0F0E0C"/>
    <circle cx="22" cy="24" r="2.5" fill="#F0E8D5"/>
    <circle cx="38" cy="24" r="2.5" fill="#F0E8D5"/>
    <ellipse cx="30" cy="30" rx="2.5" ry="1.5" fill="#F0E8D5"/>
  </g>
  <text x="90" y="165" textAnchor="middle" fontFamily="Bungee, sans-serif" fontSize="14" fill="#0F0E0C" fontWeight="bold">NIXERINO</text>
</svg>
