<svg xmlns="http://www.w3.org/2000/svg" viewBox="0 0 180 180">
  <rect width="180" height="180" fill="#0F0E0C"/>
  <g transform="translate(34, 56) scale(3.5)">
    <path d="M3 19c0-3.4 2.8-6 6.5-6h11c4.5 0 8.5 2.4 9.5 6.5.3 1.3-.6 2.5-2 2.5h-1.2l-.8 2c-.2.6-.8 1-1.4 1h-1.6c-.6 0-1.2-.4-1.4-1l-.6-1.5h-9l-.6 1.5c-.2.6-.8 1-1.4 1H8.4c-.6 0-1.2-.4-1.4-1l-.8-2H5c-1.1 0-2-.9-2-2v-1Z" fill="none" stroke="#B0734A" stroke-width="1.6" stroke-linejoin="round"/>
    <circle cx="25" cy="17.5" r="1" fill="#B0734A"/>
  </g>
</svg>
